<?xml version="1.0" encoding="UTF-8" standalone="no"?>
<svg
   xmlns:dc="http://purl.org/dc/elements/1.1/"
   xmlns:cc="http://creativecommons.org/ns#"
   xmlns:rdf="http://www.w3.org/1999/02/22-rdf-syntax-ns#"
   xmlns:svg="http://www.w3.org/2000/svg"
   xmlns="http://www.w3.org/2000/svg"
   version="1.1"
   id="svg2"
   viewBox="0 0 1188.4157 306.42049"
   height="86.478676mm"
   width="335.39734mm">
  <defs
     id="defs4" />
  <metadata
     id="metadata7">
    <rdf:RDF>
      <cc:Work
         rdf:about="">
        <dc:format>image/svg+xml</dc:format>
        <dc:type
           rdf:resource="http://purl.org/dc/dcmitype/StillImage" />
        <dc:title></dc:title>
      </cc:Work>
    </rdf:RDF>
  </metadata>
  <g
     transform="translate(545.95467,-200.64778)"
     id="layer1">
    <path
       id="path3336-7"
       d="m 619.18025,369.24724 c 31.04107,-31.04107 31.04107,-81.36756 2e-5,-112.40863 -18.89939,-18.84011 -39.36375,-39.35284 -56.20447,-56.19083 -18.52346,18.5424 -38.16936,38.15844 -56.20564,56.18968 -31.04106,31.04107 -31.04106,81.37022 0,112.41129 31.04107,31.04105 81.36888,31.03972 112.40995,-9.7e-4 z"
       style="fill:#8bdc01;fill-opacity:1;fill-rule:evenodd;stroke:none;stroke-width:1px;stroke-linecap:butt;stroke-linejoin:miter;stroke-opacity:1" />
    <path
       id="path3336"
       d="m 619.10005,423.42519 c 31.04107,-31.04106 31.04107,-81.36755 0,-112.40862 -18.89937,-18.84013 -39.36407,-39.3525 -56.20433,-56.19098 -18.52345,18.5424 -38.16934,38.15846 -56.20563,56.1897 -31.04106,31.04105 -31.04106,81.3702 0,112.41127 31.04108,31.04106 81.36888,31.03973 112.40995,-9.6e-4 z"
       style="fill:#33a9ff;fill-opacity:1;fill-rule:evenodd;stroke:none;stroke-width:1px;stroke-linecap:butt;stroke-linejoin:miter;stroke-opacity:1" />
    <path
       id="path3336-0"
       d="m 619.06724,483.78661 c 31.04107,-31.04106 31.04108,-81.36755 10e-6,-112.40862 -18.89938,-18.84013 -39.36375,-39.35284 -56.20447,-56.19085 -18.52346,18.5424 -38.16936,38.15846 -56.20562,56.18969 -31.04107,31.04106 -31.04107,81.37022 0,112.41128 31.04107,31.04107 81.36888,31.03973 112.40994,-9.6e-4 z"
       style="fill:#fba200;fill-opacity:1;fill-rule:evenodd;stroke:none;stroke-width:1px;stroke-linecap:butt;stroke-linejoin:miter;stroke-opacity:1" />
    <path
       id="path3360"
       d="m -520.02063,403.75479 c -24.58159,-12.86782 -34.19365,-54.45991 -17.7916,-76.98551 14.93281,-20.50781 48.9523,-29.28992 73.58763,-18.99661 14.73794,6.1579 14.54576,6.1579 14.54576,0 0,-3.34712 3.34713,-5.02069 10.04136,-5.02069 l 10.04137,0 0,53.55396 0,53.55397 -10.04137,0 c -6.76934,0 -10.04136,-1.66399 -10.04136,-5.10664 0,-4.57744 -1.02336,-4.57744 -9.87514,0 -13.7952,7.1338 -45.94564,6.6029 -60.46665,-0.99848 z m 59.76167,-21.95879 c 11.31241,-11.31244 12.67883,-37.35456 2.54736,-48.54972 -13.68536,-15.12213 -46.8345,-15.56238 -60.19478,-0.79945 -13.62611,15.05669 -9.37927,46.24631 7.60464,55.85009 13.66866,7.72911 39.11889,4.42294 50.04278,-6.50092 z m 37.3571,-43.89923 0,-71.96314 10.04136,0 10.04137,0 0,71.96314 0,71.96314 -10.04137,0 -10.04136,0 0,-71.96314 z m 40.16547,31.79767 c 0,-40.16547 0,-40.16547 -8.36782,-40.16547 -6.69422,0 -8.36779,-1.67357 -8.36779,-8.3678 0,-6.69425 1.67357,-8.36782 8.36779,-8.36782 6.56704,0 8.36782,-1.70365 8.36782,-7.91643 0,-18.38895 24.21807,-35.59617 50.09933,-35.59617 11.96682,0 13.49601,0.8988 13.49601,7.93249 0,6.92908 -1.92248,8.14921 -15.19787,9.64553 -26.46586,2.98309 -41.15628,25.93458 -16.59979,25.93458 10.2645,0 11.71492,1.03603 11.71492,8.36782 0,7.33177 -1.45042,8.3678 -11.71492,8.3678 l -11.71495,0 0,40.16547 0,40.16547 -10.04136,0 -10.04137,0 0,-40.16547 z m 46.85972,-11.71493 0,-51.88041 9.76244,0 c 5.36934,0 10.26452,1.46301 10.87815,3.25111 0.67076,1.95453 6.45528,1.34567 14.50421,-1.52665 21.12393,-7.5382 31.79766,-6.62982 31.79766,2.70611 0,6.34749 -2.87507,8.65556 -15.63518,12.55172 -23.89945,7.29739 -29.30705,17.02029 -30.71085,55.21829 -1.15988,31.56023 -1.15988,31.56023 -10.87815,31.56023 l -9.71828,0 0,-51.8804 z m 83.33627,44.28265 c -16.44233,-10.98419 -23.74577,-27.01088 -22.14973,-48.60536 2.41134,-32.62578 28.02082,-52.7384 63.40958,-49.79923 32.21075,2.67524 52.80139,21.65807 52.80139,48.67842 l 0,10.2804 -47.69649,0.92868 c -45.57633,0.88739 -47.64802,1.22626 -46.60564,7.62294 2.04079,12.52361 12.55911,19.41488 32.10779,21.03601 17.70254,1.46803 19.07858,0.99286 30.65772,-10.58628 11.71748,-11.71744 28.18951,-16.58756 28.18951,-8.33445 0,8.28593 -14.12243,25.92078 -24.82524,30.99959 -17.59373,8.34877 -51.79271,7.19613 -65.88889,-2.22072 z m 70.04002,-61.50034 c -0.5952,-3.02649 -5.1666,-8.54924 -10.15863,-12.27276 -17.34857,-12.94017 -49.92892,-6.87644 -59.53958,11.08128 -3.48272,6.50749 -2.54545,6.69423 33.59887,6.69423 32.70536,0 37.05126,-0.66245 36.09934,-5.50275 z m 51.12087,64.86484 c -10.72033,-5.50939 -19.84626,-18.4101 -22.45868,-31.74831 -2.03826,-10.40664 -1.67726,-10.87816 8.32914,-10.87816 8.30581,0 10.45976,1.40983 10.45976,6.8464 0,3.7655 3.69707,10.54343 8.21568,15.06205 15.14349,15.14349 59.785773,8.48249 50.010093,-7.46191 -3.75751,-6.12855 -8.21558,-7.65043 -42.261293,-14.42678 -31.50186,-6.27001 -42.17535,-27.87783 -23.16236,-46.8908 24.91577,-24.91577 80.183643,-12.58055 86.281963,19.25728 1.9914,10.39662 1.62065,10.87814 -8.37611,10.87814 -6.69543,0 -10.45976,-1.67341 -10.45976,-4.64987 0,-2.55744 -2.80899,-8.11881 -6.24214,-12.35859 -12.08429,-14.92346 -55.757323,-7.79978 -49.656183,8.09958 1.12978,2.94416 9.91618,6.52034 21.37721,8.70086 33.480183,6.36976 44.153893,10.208 49.462053,17.78647 5.04872,7.20802 5.14314,7.13054 5.21529,-4.28198 0.1084,-17.16343 11.2637,-38.92437 23.889499,-46.60258 23.5619207,-14.32887 55.984481,-12.86916 74.459651,3.35226 15.40333,13.52431 17.42384,22.64805 5.97924,26.99929 -5.97213,2.2706 -9.2386,2.26546 -9.99899,-0.016 -11.20247,-33.60739 -66.151311,-27.80899 -72.809691,7.68319 -2.95085,15.72953 3.41858,31.02076 15.530381,37.28401 20.0984697,10.39334 51.15652,2.64933 55.28097,-13.78374 1.81189,-7.21928 3.49898,-8.18258 11.32133,-6.46451 8.90953,1.95686 9.24082,1.51237 10.77533,-14.45789 0.93612,-9.74221 4.74367,-20.91528 9.315549,-27.33586 24.48838,-34.39079 89.178488,-29.29675 105.787448,8.3302 4.00359,9.07001 4.44504,6.23686 4.56338,-29.28731 l 0.13092,-39.32841 10.04137,0 10.04137,0 0.0141,49.37007 c 0.0114,42.7921 0.86938,50.77531 6.44367,59.91711 14.07278,23.07914 70.0538,21.39123 82.40041,-2.48447 3.59781,-6.95909 4.86198,-22.06381 4.86198,-58.10322 l 0,-48.69949 10.26662,0 10.26664,0 -1.06206,54.99465 c -0.96051,49.73747 -1.73542,55.89684 -8.10614,64.4321 -10.69272,14.32574 -26.21342,21.77366 -49.1737,23.59701 -34.98521,2.7783 -61.83867,-8.62847 -70.86813,-30.10326 l -4.12787,-9.81728 -6.65213,12.8805 c -18.96454,36.72076 -87.586978,38.34494 -106.874847,2.52955 l -5.98118,-11.10643 -6.90082,12.40224 C 44.075413,403.884 29.070843,410.43399 0.49507269,409.17349 -26.350678,407.98932 -40.204208,400.50508 -49.151167,382.3527 c -4.75648,-9.65035 -5.42339,-10.0431 -5.49032,-3.23357 -0.19923,20.26408 -16.48649,30.76432 -47.606513,30.6915 -11.59715,-0.027 -24.70604,-1.9099 -29.13086,-4.18391 z M 148.5424,381.31897 c 10.82702,-10.827 11.66423,-13.05731 10.10252,-26.91282 -2.06433,-18.3146 -9.4145,-27.12578 -26.45591,-31.71455 -29.69494,-7.99601 -55.151268,10.70403 -51.808348,38.05803 2.6471,21.65986 15.80348,31.78375 41.796438,32.16252 12.34153,0.17994 16.35872,-1.58657 26.3653,-11.59318 z m 171.61702,-43.4222 0,-71.96314 42.67581,0.0187 c 65.12826,0.0285 83.60352,8.03047 86.94283,37.65649 1.63238,14.48263 0.88209,16.5853 -9.69097,27.15833 -14.54239,14.54238 -30.13033,18.80255 -68.88404,18.82592 l -30.9609,0.0187 0,30.1241 c 0,30.12411 0,30.12411 -10.04136,30.12411 l -10.04137,0 0,-71.96314 z m 99.4378,-13.80368 c 17.19809,-12.79346 13.00881,-32.0026 -8.26809,-37.91162 -6.8818,-1.91118 -25.69164,-3.48331 -41.79965,-3.49355 l -29.28733,-0.0187 0,25.48305 0,25.48305 35.00569,-1.29581 c 28.90482,-1.06999 36.63414,-2.50717 44.34938,-8.24645 z"
       style="fill:#666666" />
    <g
       id="flowRoot3362"
       style="font-style:normal;font-variant:normal;font-weight:bold;font-stretch:normal;font-size:44.99999619px;line-height:100%;font-family:sans-serif;-inkscape-font-specification:'sans-serif, Bold';text-align:start;letter-spacing:0px;word-spacing:0px;writing-mode:lr-tb;text-anchor:start;fill:#666666;fill-opacity:1;stroke:none;stroke-width:1px;stroke-linecap:butt;stroke-linejoin:miter;stroke-opacity:1"
       transform="translate(544.72618,-512.79898)">
      <path
         id="path4151"
         style=""
         d="m -1055.1084,982.94259 q 0,4.83398 -4.1089,7.86621 -4.0869,3.01025 -11.1182,3.01025 -4.0649,0 -7.0971,-0.70312 -3.0103,-0.7251 -5.647,-1.82373 l 0,-7.84424 0.9229,0 q 2.6147,2.0874 5.8447,3.20801 3.2519,1.1206 6.2402,1.1206 0.7691,0 2.0215,-0.13183 1.2524,-0.13184 2.0435,-0.43946 0.9668,-0.3955 1.582,-0.98877 0.6372,-0.59326 0.6372,-1.75781 0,-1.07666 -0.9229,-1.8457 -0.9008,-0.79102 -2.6586,-1.2085 -1.8457,-0.43945 -3.9112,-0.81299 -2.0434,-0.3955 -3.8452,-0.98877 -4.1308,-1.34033 -5.9546,-3.62548 -1.8017,-2.30713 -1.8017,-5.71289 0,-4.57032 4.0869,-7.44873 4.1089,-2.90039 10.5469,-2.90039 3.2299,0 6.372,0.6372 3.1641,0.61524 5.4712,1.56006 l 0,7.53662 -0.9009,0 q -1.9775,-1.58203 -4.8559,-2.63672 -2.8565,-1.07666 -5.8447,-1.07666 -1.0547,0 -2.1094,0.15381 -1.0327,0.13184 -1.9995,0.52735 -0.857,0.32959 -1.4722,1.01074 -0.6152,0.65918 -0.6152,1.51611 0,1.29639 0.9887,1.99951 0.9888,0.68115 3.7354,1.25244 1.8017,0.37354 3.4497,0.7251 1.6699,0.35156 3.5815,0.9668 3.7574,1.23047 5.5371,3.36181 1.8018,2.10938 1.8018,5.49317 z" />
      <path
         id="path4153"
         style=""
         d="m -1041.8369,993.22579 -7.9102,0 0,-24.67529 7.9102,0 0,24.67529 z m 0.2197,-28.19092 -8.3496,0 0,-5.99853 8.3496,0 0,5.99853 z" />
      <path
         id="path4155"
         style=""
         d="m -1010.2402,975.73556 0,17.49023 -7.9541,0 0,-12.32666 q 0,-1.80176 -0.088,-3.0542 -0.088,-1.27441 -0.4834,-2.06543 -0.3955,-0.79101 -1.2085,-1.14258 -0.791,-0.37353 -2.2412,-0.37353 -1.1646,0 -2.2632,0.4834 -1.0987,0.46142 -1.9776,0.98877 l 0,17.49023 -7.9101,0 0,-24.67529 7.9101,0 0,2.72461 q 2.0435,-1.60401 3.9112,-2.50488 1.8676,-0.90088 4.1308,-0.90088 2.439,0 4.3067,1.09863 1.8676,1.07666 2.9223,3.18603 2.3731,-1.99951 4.6143,-3.14208 2.2412,-1.14258 4.3945,-1.14258 3.99905,0 6.06448,2.39502 2.0874,2.39502 2.0874,6.89941 l 0,16.06201 -7.95408,0 0,-12.32666 q 0,-1.82373 -0.088,-3.07617 -0.066,-1.25244 -0.4614,-2.04346 -0.3736,-0.79101 -1.1866,-1.14258 -0.813,-0.37353 -2.2851,-0.37353 -0.9888,0 -1.9336,0.35156 -0.9448,0.32959 -2.3071,1.12061 z" />
      <path
         id="path4157"
         style=""
         d="m -960.97755,980.54757 q 0,3.0542 -0.94482,5.55908 -0.92285,2.50488 -2.43897,4.13086 -1.58203,1.71387 -3.58154,2.59277 -1.99951,0.87891 -4.28467,0.87891 -2.10937,0 -3.58154,-0.46143 -1.47217,-0.43945 -3.01025,-1.25244 l 0,10.28318 -7.91016,0 0,-33.728 7.91016,0 0,2.5708 q 1.82373,-1.4502 3.71337,-2.35107 1.91162,-0.90088 4.39453,-0.90088 4.61426,0 7.16309,3.38379 2.5708,3.38378 2.5708,9.29443 z m -8.15185,0.15381 q 0,-3.60352 -1.23047,-5.22949 -1.23047,-1.62598 -3.88916,-1.62598 -1.12061,0 -2.30713,0.35156 -1.18652,0.32959 -2.26318,0.9668 l 0,12.41455 q 0.79101,0.30762 1.69189,0.39551 0.90088,0.0879 1.77978,0.0879 3.14209,0 4.68018,-1.82373 1.53809,-1.84571 1.53809,-5.53711 z" />
      <path
         id="path4159"
         style=""
         d="m -947.3545,993.22579 -7.91016,0 0,-34.18945 7.91016,0 0,34.18945 z" />
      <path
         id="path4161"
         style=""
         d="m -915.58205,982.34933 -18.10547,0 q 0.17579,2.90039 2.19727,4.43847 2.04346,1.53809 5.99853,1.53809 2.50489,0 4.85596,-0.90088 2.35107,-0.90088 3.71338,-1.93359 l 0.87891,0 0,6.35009 q -2.68067,1.07666 -5.05372,1.56006 -2.37304,0.4834 -5.25146,0.4834 -7.42676,0 -11.38183,-3.33984 -3.95508,-3.33985 -3.95508,-9.51416 0,-6.1084 3.73535,-9.66797 3.75732,-3.58154 10.2832,-3.58154 6.02051,0 9.05273,3.0542 3.03223,3.03222 3.03223,8.74511 l 0,2.76856 z m -7.86621,-4.63623 q -0.0659,-2.48291 -1.23047,-3.73535 -1.16455,-1.25245 -3.62549,-1.25245 -2.28515,0 -3.75732,1.18653 -1.47217,1.18652 -1.64795,3.80127 l 10.26123,0 z" />
      <path
         id="path4163"
         style=""
         d="m -879.67873,986.7878 0,-5.1416 q -1.604,0.13184 -3.47168,0.37354 -1.86767,0.21972 -2.83447,0.52734 -1.18652,0.37354 -1.82373,1.09863 -0.61523,0.70313 -0.61523,1.86768 0,0.76904 0.13183,1.25244 0.13184,0.4834 0.65918,0.92285 0.50537,0.43945 1.2085,0.65918 0.70312,0.19775 2.19726,0.19775 1.18653,0 2.39502,-0.48339 1.23047,-0.4834 2.15332,-1.27442 z m 0,3.82324 q -0.6372,0.4834 -1.58203,1.16456 -0.94482,0.68115 -1.77978,1.07666 -1.16455,0.52734 -2.417,0.76904 -1.25244,0.26367 -2.74658,0.26367 -3.51562,0 -5.88867,-2.17529 -2.37305,-2.1753 -2.37305,-5.55908 0,-2.70264 1.2085,-4.41651 1.2085,-1.71386 3.42773,-2.70263 2.19727,-0.98877 5.44922,-1.40625 3.25196,-0.41748 6.74561,-0.61524 l 0,-0.13183 q 0,-2.04346 -1.66992,-2.8125 -1.66993,-0.79102 -4.92188,-0.79102 -1.95557,0 -4.1748,0.70313 -2.21924,0.68115 -3.18604,1.05468 l -0.7251,0 0,-5.95459 q 1.25245,-0.32959 4.06495,-0.76904 2.83447,-0.46143 5.66894,-0.46143 6.74561,0 9.73389,2.08741 3.01025,2.06543 3.01025,6.5039 l 0,16.78711 -7.84424,0 0,-2.61475 z" />
      <path
         id="path4165"
         style=""
         d="m -839.77638,993.22579 -7.95411,0 0,-12.23877 q 0,-1.49414 -0.1538,-2.96631 -0.15381,-1.49414 -0.52735,-2.19726 -0.43945,-0.81299 -1.29638,-1.18653 -0.83497,-0.37353 -2.35108,-0.37353 -1.07666,0 -2.19726,0.35156 -1.09864,0.35156 -2.39502,1.12061 l 0,17.49023 -7.91016,0 0,-24.67529 7.91016,0 0,2.72461 q 2.10937,-1.64795 4.04296,-2.52686 1.95557,-0.8789 4.32862,-0.8789 3.99902,0 6.24023,2.3291 2.26319,2.3291 2.26319,6.96533 l 0,16.06201 z" />
      <path
         id="path4167"
         style=""
         d="m -808.48732,993.22579 -7.91016,0 0,-2.5708 q -2.04345,1.66992 -3.82324,2.46094 -1.77978,0.79101 -4.10889,0.79101 -4.50439,0 -7.20703,-3.47168 -2.70263,-3.47168 -2.70263,-9.36035 0,-3.14209 0.90088,-5.55908 0.92285,-2.43896 2.50488,-4.1748 1.49414,-1.64795 3.62549,-2.54883 2.13134,-0.92285 4.26269,-0.92285 2.21924,0 3.62549,0.4834 1.42822,0.46142 2.92236,1.18652 l 0,-10.50293 7.91016,0 0,34.18945 z m -7.91016,-6.81152 0,-12.10694 q -0.83496,-0.35156 -1.75781,-0.50537 -0.92285,-0.1538 -1.69189,-0.1538 -3.12012,0 -4.68018,1.95556 -1.56006,1.9336 -1.56006,5.3833 0,3.62549 1.25244,5.27344 1.25244,1.62598 4.021,1.62598 1.07666,0 2.28515,-0.39551 1.2085,-0.41748 2.13135,-1.07666 z" />
      <path
         id="path4169"
         style=""
         d="m -761.64163,1002.2785 -7.91016,0 0,-11.4697 q -1.93359,1.56006 -3.7793,2.3291 -1.8457,0.76904 -4.15283,0.76904 -4.52637,0 -7.229,-3.47168 -2.68067,-3.47168 -2.68067,-9.36035 0,-3.14209 0.90088,-5.55908 0.92285,-2.43896 2.50489,-4.1748 1.49414,-1.64795 3.62548,-2.54883 2.13135,-0.92285 4.2627,-0.92285 2.0874,0 3.49365,0.4834 1.42822,0.46142 3.01025,1.29638 l 0.28565,-1.09863 7.66846,0 0,33.728 z m -7.91016,-15.86423 0,-12.10694 q -0.83496,-0.35156 -1.75781,-0.50537 -0.92285,-0.1538 -1.6919,-0.1538 -3.12011,0 -4.68017,1.95556 -1.56006,1.9336 -1.56006,5.3833 0,3.62549 1.25244,5.27344 1.25244,1.62598 4.021,1.62598 1.07666,0 2.28515,-0.39551 1.2085,-0.41748 2.13135,-1.07666 z" />
      <path
         id="path4171"
         style=""
         d="m -729.58353,993.22579 -7.91015,0 0,-2.72461 q -2.19727,1.66992 -4.021,2.54883 -1.82373,0.85693 -4.35059,0.85693 -4.08691,0 -6.30615,-2.35107 -2.19726,-2.35108 -2.19726,-6.94336 l 0,-16.06201 7.9541,0 0,12.23877 q 0,1.86767 0.10986,3.12011 0.13184,1.23047 0.57129,2.04346 0.41748,0.81299 1.25244,1.18653 0.85693,0.37353 2.37305,0.37353 1.01074,0 2.24121,-0.37353 1.23047,-0.37354 2.37305,-1.09864 l 0,-17.49023 7.91015,0 0,24.67529 z" />
      <path
         id="path4173"
         style=""
         d="m -714.1807,993.22579 -7.91015,0 0,-24.67529 7.91015,0 0,24.67529 z m 0.21973,-28.19092 -8.34961,0 0,-5.99853 8.34961,0 0,5.99853 z" />
      <path
         id="path4175"
         style=""
         d="m -693.85599,993.88497 q -3.22998,0 -5.91064,-0.76904 -2.65869,-0.76905 -4.63623,-2.37305 -1.95557,-1.604 -3.03223,-4.04297 -1.07666,-2.43896 -1.07666,-5.71289 0,-3.4497 1.14258,-5.95459 1.16455,-2.50488 3.22998,-4.15283 1.99951,-1.56006 4.61426,-2.28516 2.61474,-0.72509 5.42724,-0.72509 2.52686,0 4.6582,0.54931 2.13135,0.54932 3.97706,1.42823 l 0,6.7456 -1.12061,0 q -0.46143,-0.39551 -1.12061,-0.92285 -0.6372,-0.52734 -1.58203,-1.03272 -0.90088,-0.48339 -1.97754,-0.79101 -1.07666,-0.32959 -2.50488,-0.32959 -3.16406,0 -4.87793,2.02148 -1.69189,1.99952 -1.69189,5.44922 0,3.55957 1.73584,5.40527 1.75781,1.84571 4.96582,1.84571 1.49414,0 2.68066,-0.32959 1.2085,-0.35156 1.99951,-0.81299 0.74707,-0.43945 1.31836,-0.92285 0.57129,-0.4834 1.05469,-0.94483 l 1.12061,0 0,6.74561 q -1.86768,0.87891 -3.91114,1.38428 -2.02148,0.52734 -4.48242,0.52734 z" />
      <path
         id="path4177"
         style=""
         d="m -654.06351,993.22579 -9.20654,0 -6.92139,-10.74463 -2.15332,2.61475 0,8.12988 -7.91015,0 0,-34.18945 7.91015,0 0,20.4126 8.52539,-10.89844 9.11865,0 -8.87695,10.63476 9.51416,14.04053 z" />
      <path
         id="path4179"
         style=""
         d="m -603.96585,993.22579 -8.72315,0 -2.26318,-6.61377 -12.12891,0 -2.26318,6.61377 -8.50342,0 12.08496,-32.71728 9.71192,0 12.08496,32.71728 z m -13.02979,-12.6123 -4.02099,-11.7334 -4.021,11.7334 8.04199,0 z" />
      <path
         id="path4181"
         style=""
         d="m -591.74905,993.22579 -7.91016,0 0,-34.18945 7.91016,0 0,34.18945 z" />
      <path
         id="path4183"
         style=""
         d="m -568.28226,964.83712 -0.59326,0 q -0.52734,-0.15381 -1.38428,-0.35156 -0.83496,-0.19776 -1.80176,-0.19776 -2.3291,0 -3.16406,0.83497 -0.81299,0.83496 -0.81299,3.22998 l 0,0.19775 6.1084,0 0,5.36133 -5.84472,0 0,19.31396 -7.91016,0 0,-19.31396 -3.38379,0 0,-5.36133 3.38379,0 0,-0.68115 q 0,-4.52637 2.39502,-6.78955 2.41699,-2.26319 7.29492,-2.26319 1.75781,0 3.18604,0.13184 1.42822,0.10986 2.52685,0.30762 l 0,5.58105 z" />
      <path
         id="path4185"
         style=""
         d="m -547.40827,976.08712 -0.70312,0 q -0.50537,-0.17578 -1.62598,-0.26367 -1.1206,-0.0879 -1.86767,-0.0879 -1.6919,0 -2.98828,0.21972 -1.29639,0.21973 -2.79053,0.74707 l 0,16.52344 -7.91016,0 0,-24.67529 7.91016,0 0,3.62549 q 2.61474,-2.24121 4.54834,-2.96631 1.93359,-0.74707 3.55957,-0.74707 0.41748,0 0.94482,0.022 0.52735,0.022 0.92285,0.0659 l 0,7.53662 z" />
      <path
         id="path4187"
         style=""
         d="m -518.58014,982.34933 -18.10547,0 q 0.17578,2.90039 2.19727,4.43847 2.04345,1.53809 5.99853,1.53809 2.50488,0 4.85596,-0.90088 2.35107,-0.90088 3.71338,-1.93359 l 0.8789,0 0,6.35009 q -2.68066,1.07666 -5.05371,1.56006 -2.37304,0.4834 -5.25146,0.4834 -7.42676,0 -11.38184,-3.33984 -3.95507,-3.33985 -3.95507,-9.51416 0,-6.1084 3.73535,-9.66797 3.75732,-3.58154 10.2832,-3.58154 6.02051,0 9.05273,3.0542 3.03223,3.03222 3.03223,8.74511 l 0,2.76856 z m -7.86621,-4.63623 q -0.0659,-2.48291 -1.23047,-3.73535 -1.16455,-1.25245 -3.62549,-1.25245 -2.28515,0 -3.75732,1.18653 -1.47217,1.18652 -1.64795,3.80127 l 10.26123,0 z" />
      <path
         id="path4189"
         style=""
         d="m -491.55377,985.40353 q 0,3.82324 -3.42774,6.17431 -3.42773,2.3291 -9.38232,2.3291 -3.2959,0 -5.97656,-0.61523 -2.68067,-0.61524 -4.30664,-1.36231 l 0,-6.5039 0.72509,0 q 0.59327,0.41748 1.36231,0.92285 0.79101,0.4834 2.21924,1.05469 1.23047,0.50537 2.79052,0.8789 1.56006,0.35157 3.33985,0.35157 2.3291,0 3.4497,-0.50538 1.12061,-0.52734 1.12061,-1.53808 0,-0.90088 -0.65918,-1.29639 -0.65918,-0.41748 -2.50488,-0.79101 -0.87891,-0.19776 -2.39502,-0.41748 -1.49414,-0.2417 -2.72461,-0.57129 -3.36182,-0.87891 -4.98779,-2.72461 -1.62598,-1.86768 -1.62598,-4.63623 0,-3.55957 3.36182,-5.91065 3.38378,-2.37304 9.22851,-2.37304 2.76855,0 5.29541,0.57129 2.54883,0.54931 3.97705,1.18652 l 0,6.24023 -0.68115,0 q -1.75781,-1.20849 -4.021,-1.95556 -2.24121,-0.76905 -4.54834,-0.76905 -1.91162,0 -3.22998,0.52735 -1.29638,0.52734 -1.29638,1.49414 0,0.8789 0.59326,1.34033 0.59326,0.46143 2.79052,0.92285 1.2085,0.2417 2.59278,0.4834 1.40625,0.21973 2.8125,0.57129 3.12011,0.81299 4.61426,2.5708 1.49414,1.73584 1.49414,4.35059 z" />
      <path
         id="path4191"
         style=""
         d="m -473.42633,993.88497 q -3.22998,0 -5.91065,-0.76904 -2.65869,-0.76905 -4.63623,-2.37305 -1.95556,-1.604 -3.03222,-4.04297 -1.07666,-2.43896 -1.07666,-5.71289 0,-3.4497 1.14258,-5.95459 1.16455,-2.50488 3.22998,-4.15283 1.99951,-1.56006 4.61425,-2.28516 2.61475,-0.72509 5.42725,-0.72509 2.52685,0 4.6582,0.54931 2.13135,0.54932 3.97705,1.42823 l 0,6.7456 -1.1206,0 q -0.46143,-0.39551 -1.12061,-0.92285 -0.63721,-0.52734 -1.58203,-1.03272 -0.90088,-0.48339 -1.97754,-0.79101 -1.07666,-0.32959 -2.50488,-0.32959 -3.16406,0 -4.87793,2.02148 -1.6919,1.99952 -1.6919,5.44922 0,3.55957 1.73584,5.40527 1.75782,1.84571 4.96582,1.84571 1.49415,0 2.68067,-0.32959 1.20849,-0.35156 1.99951,-0.81299 0.74707,-0.43945 1.31836,-0.92285 0.57129,-0.4834 1.05469,-0.94483 l 1.1206,0 0,6.74561 q -1.86767,0.87891 -3.91113,1.38428 -2.02148,0.52734 -4.48242,0.52734 z" />
      <path
         id="path4193"
         style=""
         d="m -434.60065,980.89913 q 0,6.08643 -3.55957,9.60205 -3.5376,3.49365 -9.95361,3.49365 -6.41602,0 -9.97559,-3.49365 -3.53759,-3.51562 -3.53759,-9.60205 0,-6.13037 3.55957,-9.62402 3.58154,-3.49365 9.95361,-3.49365 6.45996,0 9.97558,3.51562 3.5376,3.51563 3.5376,9.60205 z m -9.73389,5.99854 q 0.76905,-0.94483 1.14258,-2.26319 0.39551,-1.34033 0.39551,-3.6914 0,-2.1753 -0.39551,-3.64746 -0.39551,-1.47217 -1.09863,-2.35108 -0.70312,-0.90088 -1.69189,-1.27441 -0.98877,-0.37354 -2.13135,-0.37354 -1.14258,0 -2.04346,0.30762 -0.8789,0.30762 -1.69189,1.23047 -0.7251,0.85693 -1.16455,2.35107 -0.41748,1.49414 -0.41748,3.75733 0,2.02148 0.37353,3.51562 0.37354,1.47217 1.09863,2.37305 0.70313,0.85693 1.66993,1.25244 0.98876,0.39551 2.24121,0.39551 1.07666,0 2.04345,-0.35157 0.98877,-0.37353 1.66992,-1.23046 z" />
      <path
         id="path4195"
         style=""
         d="m -397.5108,964.83712 -0.59327,0 q -0.52734,-0.15381 -1.38427,-0.35156 -0.83496,-0.19776 -1.80176,-0.19776 -2.3291,0 -3.16406,0.83497 -0.81299,0.83496 -0.81299,3.22998 l 0,0.19775 6.1084,0 0,5.36133 -5.84473,0 0,19.31396 -7.91016,0 0,-19.31396 -3.38378,0 0,-5.36133 3.38378,0 0,-0.68115 q 0,-4.52637 2.39502,-6.78955 2.417,-2.26319 7.29492,-2.26319 1.75782,0 3.18604,0.13184 1.42822,0.10986 2.52686,0.30762 l 0,5.58105 z" />
      <path
         id="path4197"
         style=""
         d="m -386.61237,993.22579 -7.91015,0 0,-24.67529 7.91015,0 0,24.67529 z m 0.21973,-28.19092 -8.34961,0 0,-5.99853 8.34961,0 0,5.99853 z" />
      <path
         id="path4199"
         style=""
         d="m -371.23151,993.22579 -7.91015,0 0,-34.18945 7.91015,0 0,34.18945 z" />
      <path
         id="path4201"
         style=""
         d="m -339.45905,982.34933 -18.10547,0 q 0.17579,2.90039 2.19727,4.43847 2.04346,1.53809 5.99854,1.53809 2.50488,0 4.85595,-0.90088 2.35108,-0.90088 3.71338,-1.93359 l 0.87891,0 0,6.35009 q -2.68067,1.07666 -5.05371,1.56006 -2.37305,0.4834 -5.25147,0.4834 -7.42676,0 -11.38183,-3.33984 -3.95508,-3.33985 -3.95508,-9.51416 0,-6.1084 3.73535,-9.66797 3.75732,-3.58154 10.2832,-3.58154 6.02051,0 9.05274,3.0542 3.03222,3.03222 3.03222,8.74511 l 0,2.76856 z m -7.86621,-4.63623 q -0.0659,-2.48291 -1.23047,-3.73535 -1.16455,-1.25245 -3.62548,-1.25245 -2.28516,0 -3.75733,1.18653 -1.47217,1.18652 -1.64795,3.80127 l 10.26123,0 z" />
      <path
         id="path4203"
         style=""
         d="m -293.90973,993.22579 -7.91016,0 0,-2.72461 q -2.19726,1.66992 -4.02099,2.54883 -1.82373,0.85693 -4.35059,0.85693 -4.08691,0 -6.30615,-2.35107 -2.19727,-2.35108 -2.19727,-6.94336 l 0,-16.06201 7.95411,0 0,12.23877 q 0,1.86767 0.10986,3.12011 0.13183,1.23047 0.57129,2.04346 0.41748,0.81299 1.25244,1.18653 0.85693,0.37353 2.37305,0.37353 1.01074,0 2.24121,-0.37353 1.23046,-0.37354 2.37304,-1.09864 l 0,-17.49023 7.91016,0 0,24.67529 z" />
      <path
         id="path4205"
         style=""
         d="m -260.6651,980.54757 q 0,3.0542 -0.94483,5.55908 -0.92285,2.50488 -2.43896,4.13086 -1.58203,1.71387 -3.58154,2.59277 -1.99952,0.87891 -4.28467,0.87891 -2.10938,0 -3.58154,-0.46143 -1.47217,-0.43945 -3.01026,-1.25244 l 0,10.28318 -7.91015,0 0,-33.728 7.91015,0 0,2.5708 q 1.82373,-1.4502 3.71338,-2.35107 1.91162,-0.90088 4.39453,-0.90088 4.61426,0 7.16309,3.38379 2.5708,3.38378 2.5708,9.29443 z m -8.15186,0.15381 q 0,-3.60352 -1.23047,-5.22949 -1.23046,-1.62598 -3.88916,-1.62598 -1.1206,0 -2.30712,0.35156 -1.18653,0.32959 -2.26319,0.9668 l 0,12.41455 q 0.79102,0.30762 1.6919,0.39551 0.90088,0.0879 1.77978,0.0879 3.14209,0 4.68018,-1.82373 1.53808,-1.84571 1.53808,-5.53711 z" />
      <path
         id="path4207"
         style=""
         d="m -247.04205,993.22579 -7.91016,0 0,-34.18945 7.91016,0 0,34.18945 z" />
      <path
         id="path4209"
         style=""
         d="m -214.34674,980.89913 q 0,6.08643 -3.55957,9.60205 -3.5376,3.49365 -9.95362,3.49365 -6.41601,0 -9.97558,-3.49365 -3.5376,-3.51562 -3.5376,-9.60205 0,-6.13037 3.55957,-9.62402 3.58154,-3.49365 9.95361,-3.49365 6.45996,0 9.97559,3.51562 3.5376,3.51563 3.5376,9.60205 z m -9.73389,5.99854 q 0.76904,-0.94483 1.14258,-2.26319 0.39551,-1.34033 0.39551,-3.6914 0,-2.1753 -0.39551,-3.64746 -0.39551,-1.47217 -1.09863,-2.35108 -0.70313,-0.90088 -1.6919,-1.27441 -0.98877,-0.37354 -2.13135,-0.37354 -1.14257,0 -2.04345,0.30762 -0.87891,0.30762 -1.6919,1.23047 -0.72509,0.85693 -1.16455,2.35107 -0.41748,1.49414 -0.41748,3.75733 0,2.02148 0.37354,3.51562 0.37353,1.47217 1.09863,2.37305 0.70312,0.85693 1.66992,1.25244 0.98877,0.39551 2.24121,0.39551 1.07666,0 2.04346,-0.35157 0.98877,-0.37353 1.66992,-1.23046 z" />
      <path
         id="path4211"
         style=""
         d="m -193.69245,986.7878 0,-5.1416 q -1.604,0.13184 -3.47167,0.37354 -1.86768,0.21972 -2.83448,0.52734 -1.18652,0.37354 -1.82373,1.09863 -0.61523,0.70313 -0.61523,1.86768 0,0.76904 0.13183,1.25244 0.13184,0.4834 0.65918,0.92285 0.50537,0.43945 1.2085,0.65918 0.70312,0.19775 2.19727,0.19775 1.18652,0 2.39501,-0.48339 1.23047,-0.4834 2.15332,-1.27442 z m 0,3.82324 q -0.6372,0.4834 -1.58203,1.16456 -0.94482,0.68115 -1.77978,1.07666 -1.16455,0.52734 -2.41699,0.76904 -1.25244,0.26367 -2.74659,0.26367 -3.51562,0 -5.88867,-2.17529 -2.37304,-2.1753 -2.37304,-5.55908 0,-2.70264 1.20849,-4.41651 1.2085,-1.71386 3.42774,-2.70263 2.19726,-0.98877 5.44921,-1.40625 3.25196,-0.41748 6.74561,-0.61524 l 0,-0.13183 q 0,-2.04346 -1.66992,-2.8125 -1.66992,-0.79102 -4.92188,-0.79102 -1.95556,0 -4.1748,0.70313 -2.21924,0.68115 -3.18604,1.05468 l -0.72509,0 0,-5.95459 q 1.25244,-0.32959 4.06494,-0.76904 2.83447,-0.46143 5.66894,-0.46143 6.74561,0 9.73389,2.08741 3.01025,2.06543 3.01025,6.5039 l 0,16.78711 -7.84424,0 0,-2.61475 z" />
      <path
         id="path4213"
         style=""
         d="m -154.58112,993.22579 -7.91015,0 0,-2.5708 q -2.04346,1.66992 -3.82325,2.46094 -1.77978,0.79101 -4.10888,0.79101 -4.5044,0 -7.20703,-3.47168 -2.70264,-3.47168 -2.70264,-9.36035 0,-3.14209 0.90088,-5.55908 0.92285,-2.43896 2.50488,-4.1748 1.49414,-1.64795 3.62549,-2.54883 2.13135,-0.92285 4.2627,-0.92285 2.21923,0 3.62548,0.4834 1.42823,0.46142 2.92237,1.18652 l 0,-10.50293 7.91015,0 0,34.18945 z m -7.91015,-6.81152 0,-12.10694 q -0.83496,-0.35156 -1.75782,-0.50537 -0.92285,-0.1538 -1.69189,-0.1538 -3.12012,0 -4.68018,1.95556 -1.56005,1.9336 -1.56005,5.3833 0,3.62549 1.25244,5.27344 1.25244,1.62598 4.02099,1.62598 1.07666,0 2.28516,-0.39551 1.20849,-0.41748 2.13135,-1.07666 z" />
      <path
         id="path4215"
         style=""
         d="m -122.80866,982.34933 -18.10546,0 q 0.17578,2.90039 2.19726,4.43847 2.04346,1.53809 5.99854,1.53809 2.50488,0 4.85595,-0.90088 2.35108,-0.90088 3.71338,-1.93359 l 0.87891,0 0,6.35009 q -2.68067,1.07666 -5.05371,1.56006 -2.37305,0.4834 -5.25147,0.4834 -7.42675,0 -11.38183,-3.33984 -3.95508,-3.33985 -3.95508,-9.51416 0,-6.1084 3.73535,-9.66797 3.75732,-3.58154 10.2832,-3.58154 6.02051,0 9.05274,3.0542 3.03222,3.03222 3.03222,8.74511 l 0,2.76856 z m -7.86621,-4.63623 q -0.0659,-2.48291 -1.23047,-3.73535 -1.16455,-1.25245 -3.62548,-1.25245 -2.28516,0 -3.75733,1.18653 -1.47217,1.18652 -1.64795,3.80127 l 10.26123,0 z" />
      <path
         id="path4217"
         style=""
         d="m -99.34186,976.08712 -0.70312,0 q -0.50538,-0.17578 -1.62598,-0.26367 -1.12061,-0.0879 -1.86768,-0.0879 -1.69189,0 -2.98828,0.21972 -1.29638,0.21973 -2.79052,0.74707 l 0,16.52344 -7.91016,0 0,-24.67529 7.91016,0 0,3.62549 q 2.61474,-2.24121 4.54833,-2.96631 1.9336,-0.74707 3.55957,-0.74707 0.41749,0 0.94483,0.022 0.527342,0.022 0.92285,0.0659 l 0,7.53662 z" />
    </g>
  </g>
</svg>
